HIERARCHY
ROOT Hips
{
	OFFSET 0.000000 0.000000 0.000000
	CHANNELS 6 Xposition Yposition Zposition Xrotation Yrotation Zrotation
	JOINT LeftUpLeg_virtual
	{
		OFFSET 0.000000 0.000000 0.000000
		CHANNELS 3 Xrotation Yrotation Zrotation
		JOINT LeftUpLeg
		{
			OFFSET 13.026900 -6.336304 -1.092800
			CHANNELS 3 Xrotation Yrotation Zrotation
			JOINT LeftLeg
			{
				OFFSET 0.524474 -46.096886 9.782700
				CHANNELS 3 Xrotation Yrotation Zrotation
				JOINT LeftFoot
				{
					OFFSET -0.524474 -53.427422 -12.948200
					CHANNELS 3 Xrotation Yrotation Zrotation
					JOINT LeftToeBase
					{
						OFFSET 0.192200 -14.009700 16.364100
						CHANNELS 3 Xrotation Yrotation Zrotation
						JOINT LeftToe_End
						{
							OFFSET -1.784700 -0.561700 9.474800
							CHANNELS 3 Xrotation Yrotation Zrotation
							End Site
							{
								OFFSET 0 0 0
							}
						}
					}
				}
			}
		}
	}
	JOINT RightUpLeg_virtual
	{
		OFFSET 0.000000 0.000000 0.000000
		CHANNELS 3 Xrotation Yrotation Zrotation
		JOINT RightUpLeg
		{
			OFFSET -12.883000 -6.336304 -1.092800
			CHANNELS 3 Xrotation Yrotation Zrotation
			JOINT RightLeg
			{
				OFFSET -0.524587 -46.096825 9.782800
				CHANNELS 3 Xrotation Yrotation Zrotation
				JOINT RightFoot
				{
					OFFSET 0.524587 -53.427383 -12.948300
					CHANNELS 3 Xrotation Yrotation Zrotation
					JOINT RightToeBase
					{
						OFFSET -0.192200 -14.009700 16.364100
						CHANNELS 3 Xrotation Yrotation Zrotation
						JOINT RightToe_End
						{
							OFFSET 1.784700 -0.561700 9.474800
							CHANNELS 3 Xrotation Yrotation Zrotation
							End Site
							{
								OFFSET 0 0 0
							}
						}
					}
				}
			}
		}
	}
	JOINT Spine_virtual
	{
		OFFSET 0.000000 0.000000 0.000000
		CHANNELS 3 Xrotation Yrotation Zrotation
		JOINT Spine
		{
			OFFSET 0.072000 7.257294 -0.789700
			CHANNELS 3 Xrotation Yrotation Zrotation
			JOINT Spine1
			{
				OFFSET 0.000000 12.508769 -0.658067
				CHANNELS 3 Xrotation Yrotation Zrotation
				JOINT Spine1_split
				{
					OFFSET 0.000000 12.508769 -0.658067
					CHANNELS 3 Xrotation Yrotation Zrotation
					JOINT Spine2
					{
						OFFSET 0.000000 12.508769 -0.658067
						CHANNELS 3 Xrotation Yrotation Zrotation
						JOINT Neck_virtual
						{
							OFFSET 0.000000 0.000000 0.000000
							CHANNELS 3 Xrotation Yrotation Zrotation
							JOINT Neck
							{
								OFFSET 0.000000 14.033295 7.520400
								CHANNELS 3 Xrotation Yrotation Zrotation
								JOINT Head
								{
									OFFSET 0.000000 8.198502 5.703100
									CHANNELS 3 Xrotation Yrotation Zrotation
									JOINT HeadTop_End
									{
										OFFSET 0.000000 17.760803 13.332701
										CHANNELS 3 Xrotation Yrotation Zrotation
										End Site
										{
											OFFSET 0 0 0
										}
									}
								}
							}
						}
						JOINT LeftShoulder_virtual
						{
							OFFSET 0.000000 0.000000 0.000000
							CHANNELS 3 Xrotation Yrotation Zrotation
							JOINT LeftShoulder
							{
								OFFSET 6.292450 5.785301 -0.669000
								CHANNELS 3 Xrotation Yrotation Zrotation
								JOINT LeftShoulder_split
								{
									OFFSET 6.292450 5.785301 -0.669000
									CHANNELS 3 Xrotation Yrotation Zrotation
									JOINT LeftArm
									{
										OFFSET 13.907140 -6.093903 1.965100
										CHANNELS 3 Xrotation Yrotation Zrotation
										JOINT LeftForeArm
										{
											OFFSET 34.140198 0.000000 0.000000
											CHANNELS 3 Xrotation Yrotation Zrotation
											JOINT LeftHand
											{
												OFFSET 40.960209 0.000000 0.000000
												CHANNELS 3 Xrotation Yrotation Zrotation
												End Site
												{
													OFFSET 0 0 0
												}
											}
										}
									}
								}
							}
						}
						JOINT RightShoulder_virtual
						{
							OFFSET 0.000000 0.000000 0.000000
							CHANNELS 3 Xrotation Yrotation Zrotation
							JOINT RightShoulder
							{
								OFFSET -6.292450 5.785301 -0.669000
								CHANNELS 3 Xrotation Yrotation Zrotation
								JOINT RightShoulder_split
								{
									OFFSET -6.292450 5.785301 -0.669000
									CHANNELS 3 Xrotation Yrotation Zrotation
									JOINT RightArm
									{
										OFFSET -13.907140 -6.093903 1.965100
										CHANNELS 3 Xrotation Yrotation Zrotation
										JOINT RightForeArm
										{
											OFFSET -34.140198 0.000000 0.000000
											CHANNELS 3 Xrotation Yrotation Zrotation
											JOINT RightHand
											{
												OFFSET -40.960209 0.000000 0.000000
												CHANNELS 3 Xrotation Yrotation Zrotation
												End Site
												{
													OFFSET 0 0 0
												}
											}
										}
									}
								}
							}
						}
					}
				}
			}
		}
	}
}
MOTION
Frames: 8
Frame Time: 0.03333333
-0.039827 116.662971 1.441093 0.000000 0.000000 0.000000 -2.728545 3.559997 0.727193 -2.496148 11.705255 4.700806 16.503030 -4.077089 0.978289 -11.488833 0.697301 -4.322123 -0.000110 -0.000003 -0.000003 0.000000 0.000000 0.000000 -2.728545 3.559997 0.727193 0.662051 -4.565246 -5.627721 16.856874 -9.183318 4.056999 -12.666179 -19.310885 3.443095 -0.007143 0.000002 -0.000001 0.000000 0.000000 0.000000 -2.728545 3.559997 0.727193 -0.566209 -0.757072 -3.857180 1.149532 -0.103992 1.499583 0.000000 0.000000 0.000000 0.000000 0.000000 0.000000 1.152620 -0.098084 1.497723 8.457851 0.270830 0.379498 -3.010870 1.242466 1.518414 0.000000 0.000000 0.000000 1.152620 -0.098084 1.497723 6.883881 -26.760621 -3.764302 0.000000 0.000000 0.000000 5.911087 4.517225 -79.896377 -0.000004 -18.872936 -0.000005 0.000000 0.000000 0.000000 1.152620 -0.098084 1.497723 0.447593 -3.990811 8.744687 0.000000 0.000000 0.000000 8.902102 19.263656 69.814109 0.000001 13.419888 -0.000043 0.000000 0.000000 0.000000 
-0.056309 116.657074 1.480118 0.000000 0.000000 0.000000 -2.702010 3.537568 0.717006 -2.503135 11.711999 4.722646 16.506779 -4.064744 0.976423 -11.513142 0.701341 -4.338872 -0.000050 0.000001 0.000001 0.000000 0.000000 0.000000 -2.702010 3.537568 0.717006 0.656966 -4.567940 -5.619728 16.855635 -9.181387 4.071735 -12.690329 -19.287809 3.431687 -0.008595 -0.000003 -0.000002 0.000000 0.000000 0.000000 -2.702010 3.537568 0.717006 -0.563546 -0.768536 -3.858316 1.142373 -0.105478 1.505870 0.000000 0.000000 0.000000 0.000000 0.000000 0.000000 1.145511 -0.099613 1.504006 8.426182 0.289927 0.361756 -3.008405 1.323638 1.520888 0.000000 0.000000 0.000000 1.145511 -0.099613 1.504006 6.876203 -26.741160 -3.765901 0.000000 0.000000 0.000000 5.916046 4.497561 -79.909798 0.000004 -18.862134 0.000015 0.000000 0.000000 0.000000 1.145511 -0.099613 1.504006 0.447138 -3.992708 8.741735 0.000000 0.000000 0.000000 8.916823 19.279775 69.800811 0.000001 13.450147 0.000004 0.000000 0.000000 0.000000 
-0.074068 116.653038 1.523220 0.000000 0.000000 0.000000 -2.680940 3.518151 0.708130 -2.498399 11.719272 4.741858 16.502879 -4.054046 0.977476 -11.535833 0.705689 -4.357721 -0.000015 0.000002 0.000000 0.000000 0.000000 0.000000 -2.680940 3.518151 0.708130 0.665507 -4.571791 -5.608952 16.846144 -9.182295 4.085277 -12.714584 -19.271814 3.419299 -0.016676 0.000005 -0.000002 0.000000 0.000000 0.000000 -2.680940 3.518151 0.708130 -0.559887 -0.786118 -3.861152 1.139016 -0.107763 1.516219 0.000000 0.000000 0.000000 0.000000 0.000000 0.000000 1.142232 -0.101915 1.514326 8.400877 0.302968 0.350914 -3.003914 1.378162 1.526990 0.000000 0.000000 0.000000 1.142232 -0.101915 1.514326 6.868263 -26.720786 -3.769766 0.000000 0.000000 0.000000 5.924320 4.484672 -79.910099 0.000002 -18.854213 -0.000015 0.000000 0.000000 0.000000 1.142232 -0.101915 1.514326 0.444131 -4.009370 8.740161 0.000000 0.000000 0.000000 8.941824 19.288169 69.773190 0.000007 13.479138 -0.000024 0.000000 0.000000 0.000000 
-0.090939 116.650871 1.569286 0.000000 0.000000 0.000000 -2.662851 3.498024 0.701790 -2.482555 11.719971 4.751498 16.490833 -4.033332 0.987750 -11.556911 0.711025 -4.382772 -0.000021 0.000003 -0.000002 0.000000 0.000000 0.000000 -2.662851 3.498024 0.701790 0.681787 -4.581531 -5.601004 16.831785 -9.188882 4.101034 -12.738411 -19.251617 3.406712 -0.032141 -0.000002 0.000001 0.000000 0.000000 0.000000 -2.662851 3.498024 0.701790 -0.565353 -0.803080 -3.865170 1.139502 -0.109953 1.527966 0.000000 0.000000 0.000000 0.000000 0.000000 0.000000 1.142801 -0.104127 1.526041 8.383361 0.309694 0.345250 -2.997001 1.404831 1.532885 0.000000 0.000000 0.000000 1.142801 -0.104127 1.526041 6.863711 -26.702445 -3.776577 0.000000 0.000000 0.000000 5.915643 4.470642 -79.880551 -0.000000 -18.864965 0.000017 0.000000 0.000000 0.000000 1.142801 -0.104127 1.526041 0.440767 -4.028571 8.739298 0.000000 0.000000 0.000000 8.925573 19.299318 69.755902 0.000008 13.470421 -0.000005 0.000000 0.000000 0.000000 
-0.107271 116.647430 1.614815 0.000000 0.000000 0.000000 -2.642018 3.465593 0.695020 -2.467237 11.709696 4.753863 16.481830 -3.987263 1.009748 -11.581055 0.718336 -4.418568 -0.000020 0.000003 0.000000 0.000000 0.000000 0.000000 -2.642018 3.465593 0.695020 0.690462 -4.601924 -5.603142 16.823422 -9.198036 4.125768 -12.763024 -19.200364 3.394571 -0.047997 -0.000000 0.000001 0.000000 0.000000 0.000000 -2.642018 3.465593 0.695020 -0.572219 -0.819114 -3.867520 1.138694 -0.112035 1.537106 0.000000 0.000000 0.000000 0.000000 0.000000 0.000000 1.142071 -0.106243 1.535152 8.370986 0.312571 0.342998 -2.991518 1.416710 1.533747 0.000000 0.000000 0.000000 1.142071 -0.106243 1.535152 6.870893 -26.697545 -3.784125 0.000000 0.000000 0.000000 5.864639 4.456503 -79.798951 -0.000002 -18.918309 0.000008 0.000000 0.000000 0.000000 1.142071 -0.106243 1.535152 0.437575 -4.047693 8.737071 0.000000 0.000000 0.000000 8.800776 19.343376 69.767883 0.000002 13.390830 0.000005 0.000000 0.000000 0.000000 
-0.123510 116.638618 1.653660 0.000000 0.000000 0.000000 -2.621432 3.409433 0.685295 -2.458543 11.684112 4.750582 16.491087 -3.900801 1.048345 -11.613819 0.728791 -4.470419 -0.000117 -0.000003 0.000004 0.000000 0.000000 0.000000 -2.621432 3.409433 0.685295 0.681395 -4.634896 -5.619600 16.835819 -9.205707 4.160175 -12.789475 -19.095606 3.386439 -0.057801 0.000019 0.000001 0.000000 0.000000 0.000000 -2.621432 3.409433 0.685295 -0.541625 -0.844237 -3.863634 1.124743 -0.115416 1.540028 0.000000 0.000000 0.000000 0.000000 0.000000 0.000000 1.128221 -0.109647 1.538072 8.361498 0.314390 0.342355 -2.991517 1.427001 1.529199 0.000000 0.000000 0.000000 1.128221 -0.109647 1.538072 6.906331 -26.753190 -3.781711 0.000000 0.000000 0.000000 5.766482 4.476474 -79.650681 0.000001 -19.020004 0.000004 0.000000 0.000000 0.000000 1.128221 -0.109647 1.538072 0.431419 -4.085452 8.733366 0.000000 0.000000 0.000000 8.489771 19.485037 69.809588 0.000009 13.221559 -0.000029 0.000000 0.000000 0.000000 
-0.137954 116.620010 1.677273 0.000000 0.000000 0.000000 -2.611685 3.326024 0.670677 -2.459218 11.636137 4.739624 16.537981 -3.763421 1.113016 -11.660912 0.743302 -4.542842 -0.000025 0.000003 -0.000001 0.000000 0.000000 0.000000 -2.611685 3.326024 0.670677 0.649834 -4.675401 -5.643530 16.886222 -9.213533 4.192940 -12.817981 -18.940062 3.388897 -0.063654 -0.000031 0.000001 0.000000 0.000000 0.000000 -2.611685 3.326024 0.670677 -0.429901 -0.895308 -3.847773 1.084893 -0.122427 1.533834 0.000000 0.000000 0.000000 0.000000 0.000000 0.000000 1.088542 -0.116639 1.531929 8.356546 0.316249 0.341673 -2.994642 1.439068 1.522847 0.000000 0.000000 0.000000 1.088542 -0.116639 1.531929 6.953068 -26.850109 -3.769885 0.000000 0.000000 0.000000 5.634203 4.531742 -79.447347 0.000002 -19.130069 -0.000005 0.000000 0.000000 0.000000 1.088542 -0.116639 1.531929 0.416383 -4.175811 8.728483 0.000000 0.000000 0.000000 7.997172 19.797469 69.818207 -0.000003 13.000976 0.000019 0.000000 0.000000 0.000000 
-0.146321 116.574409 1.672493 0.000000 0.000000 0.000000 -2.611571 3.214977 0.646907 -2.510999 11.556093 4.726327 16.683864 -3.568840 1.208044 -11.743961 0.762687 -4.633891 -0.000026 -0.000003 -0.000001 0.000000 0.000000 0.000000 -2.611571 3.214977 0.646907 0.553436 -4.716634 -5.664523 17.034248 -9.225921 4.210170 -12.863760 -18.752692 3.410953 -0.070368 0.000020 0.000001 0.000000 0.000000 0.000000 -2.611571 3.214977 0.646907 -0.213603 -1.011522 -3.818403 1.012895 -0.138371 1.513737 0.000000 0.000000 0.000000 0.000000 0.000000 0.000000 1.016904 -0.132510 1.511960 8.356648 0.318351 0.339762 -2.995809 1.451194 1.517696 0.000000 0.000000 0.000000 1.016904 -0.132510 1.511960 6.985070 -26.925062 -3.758293 0.000000 0.000000 0.000000 5.463097 4.550990 -79.193441 -0.000000 -19.155607 0.000008 0.000000 0.000000 0.000000 1.016904 -0.132510 1.511960 0.388118 -4.345269 8.720304 0.000000 0.000000 0.000000 7.416915 20.221342 69.646694 0.000006 12.816500 0.000024 0.000000 0.000000 0.000000 
